<?xml version="1.0" encoding="iso-8859-1"?>
<!-- Generator: Adobe Illustrator 19.0.0, SVG Export Plug-In . SVG Version: 6.00 Build 0)  -->
<svg version="1.1" id="Layer_1" xmlns="http://www.w3.org/2000/svg" xmlns:xlink="http://www.w3.org/1999/xlink" x="0px" y="0px"
	 viewBox="0 0 473.681 473.681" style="enable-background:new 0 0 473.681 473.681;" xml:space="preserve">
<path style="fill:#357180;" d="M0.002,236.842C0.002,106.024,106.037,0,236.837,0c130.807,0,236.842,106.028,236.842,236.842
	c0,130.795-106.036,236.838-236.842,236.838C106.037,473.681,0.002,367.637,0.002,236.842z"/>
<path style="fill:#F7F7F7;" d="M248.736,73.389V41.894c0,0,0.239-2.588-1.66-3.328c-1.903-0.74-4.039,0.789-4.039,0.789
	l-93.796,55.136c0,0-2.109,1.271-2.109,3.063c0,2.165,2.109,3.276,2.109,3.276l94.11,55.45c0,0,1.821,1.111,3.65,0
	c1.817-1.107,1.739-2.865,1.739-2.865v-29.397c57.058,5.946,101.537,54.179,101.537,112.819c0,62.649-50.787,113.44-113.436,113.44
	S123.4,299.491,123.4,236.842c0-17.83,4.121-34.677,11.443-49.688c0,0,9.484-21.218-10.149-30.881s-31.27,0.976-33.664,5.621
	c-11.574,22.46-18.111,47.934-18.111,74.949c0,90.528,73.389,163.917,163.92,163.917c90.528,0,163.92-73.389,163.92-163.917
	C400.761,150.305,333.706,79.492,248.736,73.389z"/>
<g>
</g>
<g>
</g>
<g>
</g>
<g>
</g>
<g>
</g>
<g>
</g>
<g>
</g>
<g>
</g>
<g>
</g>
<g>
</g>
<g>
</g>
<g>
</g>
<g>
</g>
<g>
</g>
<g>
</g>
</svg>
